<svg xmlns="http://www.w3.org/2000/svg" viewBox="0 0 524.63 352.93"><defs><style>.cls-1{font-size:83px;}.cls-1,.cls-10,.cls-7,.cls-8{fill:#231f20;}.cls-1,.cls-7,.cls-8{font-family:Gross, Gross;}.cls-2{letter-spacing:-0.05em;}.cls-3{letter-spacing:-0.06em;}.cls-4{letter-spacing:0em;}.cls-5{font-size:110px;letter-spacing:0.08em;}.cls-6{letter-spacing:0.12em;}.cls-7{font-size:10px;}.cls-8{font-size:14px;}.cls-9{fill:none;stroke-width:8px;}.cls-10,.cls-9{stroke:#231f20;stroke-miterlimit:10;}.cls-11{fill:#6d6e71;}</style></defs><title>brassring_concept</title><g id="Layer_1" data-name="Layer 1"><text class="cls-1" transform="translate(17.84 149.68)">B<tspan class="cls-2" x="51.54" y="0">R</tspan><tspan class="cls-3" x="99.6" y="0">A</tspan><tspan class="cls-4" x="159.69" y="0">SS</tspan><tspan class="cls-5"><tspan x="0" y="86">R</tspan><tspan class="cls-6" x="78.32" y="86">I</tspan><tspan x="120.34" y="86">NG</tspan></tspan></text><text class="cls-7" transform="translate(12.2 233.78) rotate(-90.11)">C<tspan x="10.48" y="0">A</tspan><tspan x="21.42" y="0">N</tspan><tspan x="32.49" y="0">D</tspan><tspan x="42.95" y="0">L</tspan><tspan x="51.92" y="0">E</tspan><tspan x="61.9" y="0"> </tspan><tspan x="69.3" y="0">C</tspan><tspan x="79.39" y="0">O</tspan><tspan x="91.17" y="0">M</tspan><tspan x="104.54" y="0">P</tspan><tspan x="113.37" y="0">A</tspan><tspan x="124.3" y="0">N</tspan><tspan x="134.96" y="0">Y</tspan></text><text class="cls-8" transform="translate(8.86 91.56) rotate(179.89)"> </text></g><g id="Layer_2" data-name="Layer 2"><path class="cls-9" d="M153.79,136.63A159.57,159.57,0,1,1,153.73,337" transform="translate(-98.25 -73.28)"/><ellipse class="cls-10" cx="153.73" cy="136.79" rx="0.81" ry="8.62" transform="translate(-147.52 97.24) rotate(-51.1)"/><ellipse class="cls-10" cx="150.58" cy="140.69" rx="5.79" ry="8.09" transform="translate(-151.72 96.24) rotate(-51.1)"/><ellipse class="cls-10" cx="153.76" cy="337.34" rx="8.62" ry="0.81" transform="translate(-276 98.11) rotate(-38.9)"/><ellipse class="cls-10" cx="150.61" cy="333.44" rx="8.09" ry="5.79" transform="matrix(0.78, -0.63, 0.63, 0.78, -274.25, 95.26)"/></g><g id="Layer_3" data-name="Layer 3"><path class="cls-11" d="M158,335.86l3.12,3.68c-4.52,1.61-1.91,9.74-1.91,9.74A16.42,16.42,0,0,1,158,335.86Z" transform="translate(-98.25 -73.28)"/><path class="cls-11" d="M164.44,343.24l3.37,3.45c-4.39,1.92-1.24,9.84-1.24,9.84A16.42,16.42,0,0,1,164.44,343.24Z" transform="translate(-98.25 -73.28)"/><path class="cls-11" d="M171.21,350l3.53,3.24c-4.24,2.23-.44,9.87-.44,9.87A16.42,16.42,0,0,1,171.21,350Z" transform="translate(-98.25 -73.28)"/><path class="cls-11" d="M178.73,356.66l3.74,3c-4.09,2.5.25,9.84.25,9.84A16.51,16.51,0,0,1,178.73,356.66Z" transform="translate(-98.25 -73.28)"/><path class="cls-11" d="M187.3,363.25l3.85,2.77c-4.09,2.5-.15,9.4-.15,9.4A14.44,14.44,0,0,1,187.3,363.25Z" transform="translate(-98.25 -73.28)"/><path class="cls-11" d="M195.39,368.7l4,2.49c-3.65,3.11,1.83,9.62,1.83,9.62A16.42,16.42,0,0,1,195.39,368.7Z" transform="translate(-98.25 -73.28)"/><path class="cls-11" d="M204.55,374.11l4.27,2.08c-3.32,3.46,2.79,9.39,2.79,9.39A16.42,16.42,0,0,1,204.55,374.11Z" transform="translate(-98.25 -73.28)"/><path class="cls-11" d="M214,378.63l4.27,2.08c-3.32,3.46,2.79,9.39,2.79,9.39A16.42,16.42,0,0,1,214,378.63Z" transform="translate(-98.25 -73.28)"/><path class="cls-11" d="M224.78,383l4.43,1.71c-3,3.72,3.57,9.12,3.57,9.12A16.42,16.42,0,0,1,224.78,383Z" transform="translate(-98.25 -73.28)"/><path class="cls-11" d="M157.59,138.32l3.12-3.68c-4.52-1.61-1.91-9.74-1.91-9.74A16.42,16.42,0,0,0,157.59,138.32Z" transform="translate(-98.25 -73.28)"/><path class="cls-11" d="M164.05,130.94l3.37-3.45c-4.39-1.92-1.24-9.84-1.24-9.84A16.42,16.42,0,0,0,164.05,130.94Z" transform="translate(-98.25 -73.28)"/><path class="cls-11" d="M170.82,124.2l3.53-3.24c-4.24-2.23-.44-9.87-.44-9.87A16.42,16.42,0,0,0,170.82,124.2Z" transform="translate(-98.25 -73.28)"/><path class="cls-11" d="M178.34,117.52l3.74-3c-4.09-2.5.25-9.84.25-9.84A16.51,16.51,0,0,0,178.34,117.52Z" transform="translate(-98.25 -73.28)"/><path class="cls-11" d="M186.91,110.93l3.85-2.77c-4.09-2.5-.15-9.4-.15-9.4A14.44,14.44,0,0,0,186.91,110.93Z" transform="translate(-98.25 -73.28)"/><path class="cls-11" d="M195,105.48l4-2.49c-3.65-3.11,1.83-9.62,1.83-9.62A16.42,16.42,0,0,0,195,105.48Z" transform="translate(-98.25 -73.28)"/><path class="cls-11" d="M204.16,100.07,208.44,98c-3.32-3.46,2.79-9.39,2.79-9.39A16.42,16.42,0,0,0,204.16,100.07Z" transform="translate(-98.25 -73.28)"/><path class="cls-11" d="M213.57,95.55l4.27-2.08c-3.32-3.46,2.79-9.39,2.79-9.39A16.42,16.42,0,0,0,213.57,95.55Z" transform="translate(-98.25 -73.28)"/><path class="cls-11" d="M224.4,91.14l4.43-1.71c-3-3.72,3.57-9.12,3.57-9.12A16.42,16.42,0,0,0,224.4,91.14Z" transform="translate(-98.25 -73.28)"/><path class="cls-11" d="M235.24,386.64l4.66,1.24c-2.79,3.9,4,9.09,4,9.09A16.42,16.42,0,0,1,235.24,386.64Z" transform="translate(-98.25 -73.28)"/><path class="cls-11" d="M244.75,389l4.73.92c-2.52,4.08,4.58,8.8,4.58,8.8A16.42,16.42,0,0,1,244.75,389Z" transform="translate(-98.25 -73.28)"/><path class="cls-11" d="M254.15,390.72l4.75.66c-2.22,4.25,5.25,8.36,5.25,8.36A16.42,16.42,0,0,1,254.15,390.72Z" transform="translate(-98.25 -73.28)"/><path class="cls-11" d="M264.14,391.93l4.78.34c-1.94,4.39,5.8,8,5.8,8A16.51,16.51,0,0,1,264.14,391.93Z" transform="translate(-98.25 -73.28)"/><path class="cls-11" d="M274.94,392.47l4.74.09c-1.94,4.39,5.23,7.82,5.23,7.82A14.44,14.44,0,0,1,274.94,392.47Z" transform="translate(-98.25 -73.28)"/><path class="cls-11" d="M284.69,392.35l4.75-.25c-1.24,4.63,7,6.87,7,6.87A16.42,16.42,0,0,1,284.69,392.35Z" transform="translate(-98.25 -73.28)"/><path class="cls-11" d="M295.3,391.58l4.7-.73c-.76,4.73,7.64,6.13,7.64,6.13A16.42,16.42,0,0,1,295.3,391.58Z" transform="translate(-98.25 -73.28)"/><path class="cls-11" d="M305.61,389.95l4.7-.73c-.76,4.73,7.64,6.13,7.64,6.13A16.42,16.42,0,0,1,305.61,389.95Z" transform="translate(-98.25 -73.28)"/><path class="cls-11" d="M317,387.41l4.62-1.12c-.36,4.78,8.12,5.47,8.12,5.47A16.42,16.42,0,0,1,317,387.41Z" transform="translate(-98.25 -73.28)"/><path class="cls-11" d="M328.89,384.06l4.53-1.65c-.05,4.79,8.47,5.17,8.47,5.17A16.42,16.42,0,0,1,328.89,384.06Z" transform="translate(-98.25 -73.28)"/><path class="cls-11" d="M338,380.56l4.41-2c.27,4.79,8.8,4.59,8.8,4.59A16.42,16.42,0,0,1,338,380.56Z" transform="translate(-98.25 -73.28)"/><path class="cls-11" d="M346.72,376.56l4.27-2.19c.62,4.75,9.1,3.84,9.1,3.84A16.42,16.42,0,0,1,346.72,376.56Z" transform="translate(-98.25 -73.28)"/><path class="cls-11" d="M355.6,371.82l4.11-2.47c.93,4.7,9.31,3.19,9.31,3.19A16.51,16.51,0,0,1,355.6,371.82Z" transform="translate(-98.25 -73.28)"/><path class="cls-11" d="M364.76,366.07l3.93-2.65c.93,4.7,8.77,3.41,8.77,3.41A14.44,14.44,0,0,1,364.76,366.07Z" transform="translate(-98.25 -73.28)"/><path class="cls-11" d="M372.68,360.37l3.74-2.93c1.64,4.5,9.66,1.62,9.66,1.62A16.42,16.42,0,0,1,372.68,360.37Z" transform="translate(-98.25 -73.28)"/><path class="cls-11" d="M380.93,353.67l3.43-3.29c2.09,4.32,9.77.65,9.77.65A16.42,16.42,0,0,1,380.93,353.67Z" transform="translate(-98.25 -73.28)"/><path class="cls-11" d="M388.44,346.42l3.43-3.29c2.09,4.32,9.77.65,9.77.65A16.42,16.42,0,0,1,388.44,346.42Z" transform="translate(-98.25 -73.28)"/><path class="cls-11" d="M396.34,337.8l3.14-3.56c2.44,4.13,9.79-.18,9.79-.18A16.42,16.42,0,0,1,396.34,337.8Z" transform="translate(-98.25 -73.28)"/><path class="cls-11" d="M234.91,87.21l4.66-1.26c-2.81-3.89,3.93-9.11,3.93-9.11A16.42,16.42,0,0,0,234.91,87.21Z" transform="translate(-98.25 -73.28)"/><path class="cls-11" d="M244.42,84.78l4.73-.94c-2.54-4.07,4.54-8.82,4.54-8.82A16.42,16.42,0,0,0,244.42,84.78Z" transform="translate(-98.25 -73.28)"/><path class="cls-11" d="M253.81,83.05l4.75-.67c-2.23-4.24,5.22-8.38,5.22-8.38A16.42,16.42,0,0,0,253.81,83.05Z" transform="translate(-98.25 -73.28)"/><path class="cls-11" d="M263.8,81.81l4.78-.36c-2-4.38,5.77-8,5.77-8A16.51,16.51,0,0,0,263.8,81.81Z" transform="translate(-98.25 -73.28)"/><path class="cls-11" d="M274.59,81.22l4.74-.11c-2-4.38,5.2-7.84,5.2-7.84A14.44,14.44,0,0,0,274.59,81.22Z" transform="translate(-98.25 -73.28)"/><path class="cls-11" d="M284.35,81.31l4.75.23c-1.25-4.63,7-6.9,7-6.9A16.42,16.42,0,0,0,284.35,81.31Z" transform="translate(-98.25 -73.28)"/><path class="cls-11" d="M295,82l4.7.71c-.78-4.73,7.61-6.16,7.61-6.16A16.42,16.42,0,0,0,295,82Z" transform="translate(-98.25 -73.28)"/><path class="cls-11" d="M305.27,83.63l4.7.71c-.78-4.73,7.61-6.16,7.61-6.16A16.42,16.42,0,0,0,305.27,83.63Z" transform="translate(-98.25 -73.28)"/><path class="cls-11" d="M316.69,86.11l4.62,1.1c-.38-4.78,8.1-5.5,8.1-5.5A16.42,16.42,0,0,0,316.69,86.11Z" transform="translate(-98.25 -73.28)"/><path class="cls-11" d="M328.57,89.42l4.54,1.64c-.07-4.79,8.45-5.21,8.45-5.21A16.42,16.42,0,0,0,328.57,89.42Z" transform="translate(-98.25 -73.28)"/><path class="cls-11" d="M337.75,92.88l4.42,1.94c.25-4.79,8.78-4.62,8.78-4.62A16.42,16.42,0,0,0,337.75,92.88Z" transform="translate(-98.25 -73.28)"/><path class="cls-11" d="M346.44,96.85,350.72,99c.6-4.76,9.08-3.88,9.08-3.88A16.42,16.42,0,0,0,346.44,96.85Z" transform="translate(-98.25 -73.28)"/><path class="cls-11" d="M355.34,101.55l4.12,2.45c.91-4.71,9.3-3.22,9.3-3.22A16.51,16.51,0,0,0,355.34,101.55Z" transform="translate(-98.25 -73.28)"/><path class="cls-11" d="M364.52,107.26l3.94,2.63c.91-4.71,8.75-3.44,8.75-3.44A14.44,14.44,0,0,0,364.52,107.26Z" transform="translate(-98.25 -73.28)"/><path class="cls-11" d="M372.46,112.93l3.75,2.91c1.63-4.51,9.65-1.66,9.65-1.66A16.42,16.42,0,0,0,372.46,112.93Z" transform="translate(-98.25 -73.28)"/><path class="cls-11" d="M380.74,119.6l3.44,3.27c2.07-4.32,9.77-.69,9.77-.69A16.42,16.42,0,0,0,380.74,119.6Z" transform="translate(-98.25 -73.28)"/><path class="cls-11" d="M388.28,127.15l3.36,3.43c2.07-4.32,9.83-1,9.83-1A16,16,0,0,0,388.28,127.15Z" transform="translate(-98.25 -73.28)"/><path class="cls-11" d="M395.81,135.27l3.05,3.66c2.43-4.14,9.9-.27,9.9-.27A15.64,15.64,0,0,0,395.81,135.27Z" transform="translate(-98.25 -73.28)"/><path class="cls-11" d="M401.94,142.85l2.91,3.94c2.65-4,9.91.47,9.91.47A16.68,16.68,0,0,0,401.94,142.85Z" transform="translate(-98.25 -73.28)"/><path class="cls-11" d="M407.9,151.27l2.6,4.07c2.91-3.81,9.86,1.15,9.86,1.15A16.44,16.44,0,0,0,407.9,151.27Z" transform="translate(-98.25 -73.28)"/><path class="cls-11" d="M413,159.43l2.3,4.2c3.18-3.59,9.68,1.41,9.68,1.41A14.92,14.92,0,0,0,413,159.43Z" transform="translate(-98.25 -73.28)"/><path class="cls-11" d="M417.63,168.25l2.06,4.35c3.41-3.37,9.59,2.1,9.59,2.1A15.17,15.17,0,0,0,417.63,168.25Z" transform="translate(-98.25 -73.28)"/><path class="cls-11" d="M422.11,178.23l1.75,4.49c3.41-3.37,9.18,2,9.18,2A14.44,14.44,0,0,0,422.11,178.23Z" transform="translate(-98.25 -73.28)"/><path class="cls-11" d="M425.48,187.4l1.45,4.52c3.89-2.8,9.28,3.53,9.28,3.53C432.91,188.44,425.48,187.4,425.48,187.4Z" transform="translate(-98.25 -73.28)"/><path class="cls-11" d="M428.51,197.5l1.12,4.57c4.15-2.4,9.11,4.6,9.11,4.6C436.15,199.37,428.51,197.5,428.51,197.5Z" transform="translate(-98.25 -73.28)"/><path class="cls-11" d="M430.8,207.69l.81,4.8c4.15-2.4,8.63,4.8,8.63,4.8A16.42,16.42,0,0,0,430.8,207.69Z" transform="translate(-98.25 -73.28)"/><path class="cls-11" d="M432.54,219.36l.48,4.78c4.34-2,8.35,5.93,8.35,5.93C439.42,222.57,432.54,219.36,432.54,219.36Z" transform="translate(-98.25 -73.28)"/><path class="cls-11" d="M402.88,330.06l2.81-3.92c2.65,4,9.91-.49,9.91-.49A16.42,16.42,0,0,1,402.88,330.06Z" transform="translate(-98.25 -73.28)"/><path class="cls-11" d="M408.48,322l2.54-4.1c2.92,3.8,9.85-1.16,9.85-1.16A16.42,16.42,0,0,1,408.48,322Z" transform="translate(-98.25 -73.28)"/><path class="cls-11" d="M413.4,313.81l2.3-4.21c3.19,3.58,9.68-1.95,9.68-1.95A16.42,16.42,0,0,1,413.4,313.81Z" transform="translate(-98.25 -73.28)"/><path class="cls-11" d="M418.07,304.9l2-4.35c3.41,3.37,9.49-2.61,9.49-2.61A16.51,16.51,0,0,1,418.07,304.9Z" transform="translate(-98.25 -73.28)"/><path class="cls-11" d="M422.4,295l1.76-4.4c3.41,3.37,9.16-2.12,9.16-2.12A14.44,14.44,0,0,1,422.4,295Z" transform="translate(-98.25 -73.28)"/><path class="cls-11" d="M425.74,285.83l1.45-4.53c3.89,2.8,8.9-4.1,8.9-4.1A16.42,16.42,0,0,1,425.74,285.83Z" transform="translate(-98.25 -73.28)"/><path class="cls-11" d="M428.79,275.64l1-4.65c4.16,2.39,8.44-5,8.44-5A16.42,16.42,0,0,1,428.79,275.64Z" transform="translate(-98.25 -73.28)"/><path class="cls-11" d="M430.91,265.42l1-4.65c4.16,2.39,8.44-5,8.44-5A16.42,16.42,0,0,1,430.91,265.42Z" transform="translate(-98.25 -73.28)"/><path class="cls-11" d="M432.58,253.85l.59-4.72c4.34,2,8-5.66,8-5.66A16.42,16.42,0,0,1,432.58,253.85Z" transform="translate(-98.25 -73.28)"/><path class="cls-11" d="M433.36,229.4s.18,3.61.17,7.28c0,3.48-.21,7-.21,7.62C439.88,244.11,439.05,229.47,433.36,229.4Z" transform="translate(-98.25 -73.28)"/><path class="cls-11" d="M144,137.24c.55-2,1.48,1.28,1.48,1.28-1.33,3.22,2.91,6.94,2.91,6.94S143.12,140.61,144,137.24Z" transform="translate(-98.25 -73.28)"/><path class="cls-11" d="M144.32,334.95c.14,2.1,1.71-1,1.71-1-.66-3.42,4.24-6.22,4.24-6.22S144.09,331.46,144.32,334.95Z" transform="translate(-98.25 -73.28)"/></g></svg>