<svg xmlns="http://www.w3.org/2000/svg" viewBox="0 0 374.61 374.61"><defs><style>.cls-1{fill:#231f20;}</style></defs><title>camerashy_concept</title><g id="inner_eye"><g id="inner_eye-2" data-name="inner_eye"><path id="inner_eye-3" data-name="inner_eye" d="M249.83,188.16A61.84,61.84,0,1,0,311.67,250,61.91,61.91,0,0,0,249.83,188.16Zm0,86.67A24.84,24.84,0,1,1,274.67,250,24.87,24.87,0,0,1,249.83,274.84Zm24.46-11.53a27.93,27.93,0,0,0,.86-24.9l28.17-12.93a58.93,58.93,0,0,1-1.82,52.68Z" transform="translate(-62.53 -62.69)"/></g></g><g id="outside_eye"><g id="outer_rings"><path class="cls-1" d="M249.83,429c-98.68,0-179-80.28-179-179s80.28-179,179-179,179,80.28,179,179S348.51,429,249.83,429Zm0-353.12C153.8,75.84,75.68,154,75.68,250S153.8,424.15,249.83,424.15,424,346,424,250,345.86,75.84,249.83,75.84Z" transform="translate(-62.53 -62.69)"/><path class="cls-1" d="M249.83,437.31c-103.28,0-187.31-84-187.31-187.31s84-187.31,187.31-187.31,187.31,84,187.31,187.31S353.12,437.31,249.83,437.31Zm0-369.8C149.2,67.5,67.34,149.37,67.34,250s81.87,182.5,182.5,182.5,182.5-81.87,182.5-182.5S350.46,67.5,249.83,67.5Z" transform="translate(-62.53 -62.69)"/></g><g id="aperture_circle"><path class="cls-1" d="M165.48,109.93l144,59.33-30-77.33C218,78.27,165.48,109.93,165.48,109.93Z" transform="translate(-62.53 -62.69)"/><path class="cls-1" d="M288.12,93.41,348,237.18l33.46-75.9C347.64,108.13,288.12,93.41,288.12,93.41Z" transform="translate(-62.53 -62.69)"/><path class="cls-1" d="M388.65,170.12,328.44,309.35l80.23-33.75C423.4,214.34,388.65,170.12,388.65,170.12Z" transform="translate(-62.53 -62.69)"/><path class="cls-1" d="M405.77,290.1,261,347.49l80.65,31.33C395.35,345.92,405.77,290.1,405.77,290.1Z" transform="translate(-62.53 -62.69)"/><path class="cls-1" d="M333.37,387.67,190,326.84l34.65,80.25C286,421.4,333.37,387.67,333.37,387.67Z" transform="translate(-62.53 -62.69)"/><path class="cls-1" d="M213.63,403.31,147.36,262.37l-30,77.33C153.52,391.27,213.63,403.31,213.63,403.31Z" transform="translate(-62.53 -62.69)"/><path class="cls-1" d="M109.55,332.84l58-144.54L90.49,219C77.4,280.64,109.55,332.84,109.55,332.84Z" transform="translate(-62.53 -62.69)"/><path class="cls-1" d="M89.88,209.79l143.32-61-76.15-32.89C104.16,150.16,89.88,209.79,89.88,209.79Z" transform="translate(-62.53 -62.69)"/></g></g></svg>